<?xml version="1.0" encoding="UTF-8" standalone="no"?>
<svg
   xmlns:dc="http://purl.org/dc/elements/1.1/"
   xmlns:cc="http://creativecommons.org/ns#"
   xmlns:rdf="http://www.w3.org/1999/02/22-rdf-syntax-ns#"
   xmlns:svg="http://www.w3.org/2000/svg"
   xmlns="http://www.w3.org/2000/svg"
   xmlns:sodipodi="http://sodipodi.sourceforge.net/DTD/sodipodi-0.dtd"
   xmlns:inkscape="http://www.inkscape.org/namespaces/inkscape"
   width="11px"
   height="12px"
   viewBox="0 0 11 12"
   version="1.1"
   id="svg3435"
   inkscape:version="0.91 r13725"
   sodipodi:docname="ic-unlocked.svg">
  <metadata
     id="metadata3448">
    <rdf:RDF>
      <cc:Work
         rdf:about="">
        <dc:format>image/svg+xml</dc:format>
        <dc:type
           rdf:resource="http://purl.org/dc/dcmitype/StillImage" />
        <dc:title>ic unlocked</dc:title>
      </cc:Work>
    </rdf:RDF>
  </metadata>
  <sodipodi:namedview
     pagecolor="#ffffff"
     bordercolor="#666666"
     borderopacity="1"
     objecttolerance="10"
     gridtolerance="10"
     guidetolerance="10"
     inkscape:pageopacity="0"
     inkscape:pageshadow="2"
     inkscape:window-width="1855"
     inkscape:window-height="1056"
     id="namedview3446"
     showgrid="false"
     inkscape:zoom="76.583333"
     inkscape:cx="5.4869423"
     inkscape:cy="5.9477693"
     inkscape:window-x="1985"
     inkscape:window-y="24"
     inkscape:window-maximized="1"
     inkscape:current-layer="svg3435" />
  <!-- Generator: Sketch 48.2 (47327) - http://www.bohemiancoding.com/sketch -->
  <title
     id="title3437">ic unlocked</title>
  <desc
     id="desc3439">Created with Sketch.</desc>
  <defs
     id="defs3441" />
  <g
     id="states-HD"
     stroke="none"
     stroke-width="1"
     fill="none"
     fill-rule="evenodd"
     transform="translate(-1784.000000, -834.000000)">
    <g
       id="toggle-unlocked"
       transform="translate(1759.000000, 830.000000)"
       fill="#7D7D83"
       fill-rule="nonzero">
      <path
         d="M32,10 L33,10 L33,16 L25,16 L25,10 L30,10 L30,7 C30,5.34314575 31.3431458,4 33,4 C34.6568542,4 36,5.34314575 36,7 L36,10 L34,10 L34,7 C34,6.44771525 33.5522847,6 33,6 C32.4477153,6 32,6.44771525 32,7 L32,10 Z"
         id="ic-unlocked" />
    </g>
  </g>
  <path
     style="fill:#ffffff"
     d="m 1.0881393e-4,9.0006529 0,-2.9902068 2.49981018607,0 2.4998103,0 0.00485,-1.6420021 c 0.0044,-1.4893614 0.00697,-1.6547475 0.027721,-1.7791078 C 5.0913422,2.2354293 5.176918,1.9599227 5.3145687,1.6805738 6.0207698,0.24740588 7.717908,-0.37855076 9.1876097,0.25207742 c 0.3533802,0.15163043 0.6563125,0.3599006 0.9397693,0.64610463 0.44991,0.45426935 0.725258,1.00227705 0.836603,1.66503885 0.02099,0.1249247 0.02342,0.2835664 0.02733,1.7856366 l 0.0043,1.648531 -0.99241,0 -0.99241,0 -0.00411,-1.5767139 C 9.0021048,2.6608172 9.009082,2.7935931 8.9097738,2.5763828 8.6893283,2.0942173 8.1117025,1.8697879 7.6128636,2.0724842 7.3996828,2.1591074 7.2062677,2.3426397 7.1036489,2.5556806 6.9926786,2.7860592 6.9990207,2.671668 6.9990207,4.4428389 l 0,1.5676072 0.4961915,0 0.4961915,0 0,2.9902068 0,2.9902071 -3.9956474,0 -3.99564748607,0 0,-2.9902071 z"
     id="path3470"
     inkscape:connector-curvature="0" />
</svg>
